HIERARCHY
ROOT Hips
{
	OFFSET 0.000000 0.000000 0.000000
	CHANNELS 6 Xposition Yposition Zposition Xrotation Yrotation Zrotation
	JOINT LeftUpLeg_virtual
	{
		OFFSET 0.000000 0.000000 0.000000
		CHANNELS 3 Xrotation Yrotation Zrotation
		JOINT LeftUpLeg
		{
			OFFSET 10.205400 -3.823500 0.155100
			CHANNELS 3 Xrotation Yrotation Zrotation
			JOINT LeftLeg
			{
				OFFSET 0.708757 -12.982077 0.567790
				CHANNELS 3 Xrotation Yrotation Zrotation
				JOINT LeftFoot
				{
					OFFSET -0.708756 -10.717838 -2.184338
					CHANNELS 3 Xrotation Yrotation Zrotation
					JOINT LeftToeBase
					{
						OFFSET 0.108149 -7.191104 7.560241
						CHANNELS 3 Xrotation Yrotation Zrotation
						JOINT LeftToe_End
						{
							OFFSET 0.070230 0.081724 4.490308
							CHANNELS 3 Xrotation Yrotation Zrotation
							End Site
							{
								OFFSET 0 0 0
							}
						}
					}
				}
			}
		}
	}
	JOINT RightUpLeg_virtual
	{
		OFFSET 0.000000 0.000000 0.000000
		CHANNELS 3 Xrotation Yrotation Zrotation
		JOINT RightUpLeg
		{
			OFFSET -10.205400 -3.823500 0.005500
			CHANNELS 3 Xrotation Yrotation Zrotation
			JOINT RightLeg
			{
				OFFSET -0.708756 -12.982134 0.610632
				CHANNELS 3 Xrotation Yrotation Zrotation
				JOINT RightFoot
				{
					OFFSET 0.708754 -10.717769 -1.945823
					CHANNELS 3 Xrotation Yrotation Zrotation
					JOINT RightToeBase
					{
						OFFSET -0.108140 -7.191069 7.372968
						CHANNELS 3 Xrotation Yrotation Zrotation
						JOINT RightToe_End
						{
							OFFSET -0.070227 0.081735 4.479403
							CHANNELS 3 Xrotation Yrotation Zrotation
							End Site
							{
								OFFSET 0 0 0
							}
						}
					}
				}
			}
		}
	}
	JOINT Spine_virtual
	{
		OFFSET 0.000000 0.000000 0.000000
		CHANNELS 3 Xrotation Yrotation Zrotation
		JOINT Spine
		{
			OFFSET 0.000000 6.876099 0.125700
			CHANNELS 3 Xrotation Yrotation Zrotation
			JOINT Spine1
			{
				OFFSET 0.000000 5.730043 0.104720
				CHANNELS 3 Xrotation Yrotation Zrotation
				JOINT Spine1_split
				{
					OFFSET 0.000000 5.730043 0.104720
					CHANNELS 3 Xrotation Yrotation Zrotation
					JOINT Spine2
					{
						OFFSET 0.000000 5.730043 0.104720
						CHANNELS 3 Xrotation Yrotation Zrotation
						JOINT Neck_virtual
						{
							OFFSET 0.000000 0.000000 0.000000
							CHANNELS 3 Xrotation Yrotation Zrotation
							JOINT Neck
							{
								OFFSET 0.000000 10.314075 0.188496
								CHANNELS 3 Xrotation Yrotation Zrotation
								JOINT Head
								{
									OFFSET 0.000000 7.643700 -2.377400
									CHANNELS 3 Xrotation Yrotation Zrotation
									JOINT HeadTop_End
									{
										OFFSET 0.000000 43.788605 -13.619600
										CHANNELS 3 Xrotation Yrotation Zrotation
										End Site
										{
											OFFSET 0 0 0
										}
									}
								}
							}
						}
						JOINT LeftShoulder_virtual
						{
							OFFSET 0.000000 0.000000 0.000000
							CHANNELS 3 Xrotation Yrotation Zrotation
							JOINT LeftShoulder
							{
								OFFSET 2.196100 4.412489 0.087492
								CHANNELS 3 Xrotation Yrotation Zrotation
								JOINT LeftShoulder_split
								{
									OFFSET 2.196100 4.412489 0.087492
									CHANNELS 3 Xrotation Yrotation Zrotation
									JOINT LeftArm
									{
										OFFSET 8.771219 -2.981674 -0.026999
										CHANNELS 3 Xrotation Yrotation Zrotation
										JOINT LeftForeArm
										{
											OFFSET 8.512804 0.000000 -0.000000
											CHANNELS 3 Xrotation Yrotation Zrotation
											JOINT LeftHand
											{
												OFFSET 18.484802 0.000000 -0.000000
												CHANNELS 3 Xrotation Yrotation Zrotation
												End Site
												{
													OFFSET 0 0 0
												}
											}
										}
									}
								}
							}
						}
						JOINT RightShoulder_virtual
						{
							OFFSET 0.000000 0.000000 0.000000
							CHANNELS 3 Xrotation Yrotation Zrotation
							JOINT RightShoulder
							{
								OFFSET -2.196100 4.412496 0.070690
								CHANNELS 3 Xrotation Yrotation Zrotation
								JOINT RightShoulder_split
								{
									OFFSET -2.196100 4.412496 0.070690
									CHANNELS 3 Xrotation Yrotation Zrotation
									JOINT RightArm
									{
										OFFSET -8.771282 -2.981682 -0.094208
										CHANNELS 3 Xrotation Yrotation Zrotation
										JOINT RightForeArm
										{
											OFFSET -8.494598 0.000000 0.000000
											CHANNELS 3 Xrotation Yrotation Zrotation
											JOINT RightHand
											{
												OFFSET -18.483803 0.000000 0.000001
												CHANNELS 3 Xrotation Yrotation Zrotation
												End Site
												{
													OFFSET 0 0 0
												}
											}
										}
									}
								}
							}
						}
					}
				}
			}
		}
	}
}
MOTION
Frames: 7
Frame Time: 0.03333333
1.504266 28.896143 14.154888 0.000000 0.000000 0.000000 10.149052 -6.384895 -2.530450 -82.857756 7.708536 12.289630 115.356062 -5.322716 -2.276460 18.107199 8.027477 -7.886676 4.711845 -0.441791 -4.893088 0.000000 0.000000 0.000000 5.825838 -12.855685 -1.473503 -31.261568 -10.492456 -1.551517 48.129942 11.476054 1.658488 -40.874027 -16.569131 4.251784 4.756118 2.757504 1.038489 0.000000 0.000000 0.000000 7.442298 -11.679565 -2.653850 12.087732 1.564564 2.877493 4.561001 -0.568828 -1.206866 0.468120 1.735652 -0.966166 0.000000 0.000000 0.000000 3.018207 -0.286511 -1.568723 0.225625 1.955889 -2.478793 -8.901435 9.527144 1.756739 0.000000 0.000000 0.000000 3.166125 -0.416454 -1.375446 -0.356585 -9.703315 -4.183621 1.183688 2.708015 -0.470303 8.666026 -9.255991 -52.863588 4.593853 -79.198898 5.185549 0.000000 0.000000 0.000000 3.021453 -0.238687 -0.832311 2.850879 4.208214 12.595150 10.179636 1.266368 -4.147971 -2.557411 28.579537 25.219102 162.688453 73.691949 -165.035484 0.000000 0.000000 0.000000 
1.189928 28.889950 17.914011 0.000000 0.000000 0.000000 8.722765 -8.861004 -3.545416 -83.918655 8.242208 15.078361 106.888315 -4.557522 -4.159790 12.962857 6.779320 -9.846838 4.281130 -0.741117 -2.486857 0.000000 0.000000 0.000000 5.509034 -14.353789 -2.455699 -24.701977 -7.873458 1.467444 55.015289 10.906216 1.208544 -42.238112 -14.258144 0.684802 9.026155 3.198870 2.150786 0.000000 0.000000 0.000000 7.487761 -10.940853 -3.648210 11.790186 2.267777 2.670058 4.448254 -0.624099 -1.370857 0.780100 3.503158 -0.943476 0.000000 0.000000 0.000000 2.063443 -0.108525 -1.614842 0.283005 1.342531 -2.416506 -9.092039 10.256501 2.592861 0.000000 0.000000 0.000000 2.811110 -0.083137 -1.383565 -0.217772 -6.477987 -4.299203 2.158378 4.132343 -1.449084 15.995613 -6.816335 -52.012194 1.203491 -78.279746 1.457597 0.000000 0.000000 0.000000 2.642274 -0.128199 -1.115391 2.715777 3.697185 12.900343 8.266125 -1.221594 -3.330407 -4.306716 25.104343 28.437981 170.428396 72.108691 -172.975319 0.000000 0.000000 0.000000 
0.826711 28.817472 22.361771 0.000000 0.000000 0.000000 6.311245 -10.959646 -4.804180 -81.350347 8.252644 16.508700 95.454264 -3.704831 -6.165169 3.495607 6.264000 -10.646038 2.801532 -1.179041 -0.465173 0.000000 0.000000 0.000000 4.126613 -13.724743 -4.073461 -18.915324 -5.676384 4.139913 64.227534 11.225179 -0.009583 -36.285308 -10.826087 0.660643 -0.269162 4.263558 0.378188 0.000000 0.000000 0.000000 6.866445 -10.043669 -4.849614 11.142438 3.691352 2.452519 4.301594 -0.289098 -1.346234 0.549090 3.869160 -0.224192 0.000000 0.000000 0.000000 1.604467 0.357211 -1.490550 0.087216 0.004336 -2.251684 -8.951521 9.039053 3.250203 0.000000 0.000000 0.000000 2.565655 0.509142 -1.294278 0.076912 -2.742346 -4.359736 2.773269 4.108377 -1.697791 22.279662 -3.186862 -52.194134 -4.583903 -77.822731 -4.735133 0.000000 0.000000 0.000000 2.474713 0.361778 -1.296807 2.549923 3.185432 13.932623 6.626256 -1.865208 -3.014898 -7.128414 18.191085 32.771446 179.253930 72.630032 177.914079 0.000000 0.000000 0.000000 
0.599280 28.504416 26.945417 0.000000 0.000000 0.000000 2.852678 -11.538108 -6.048204 -74.877745 8.295744 16.067438 84.764977 -2.696803 -7.975904 -7.377970 6.594945 -8.996583 1.719140 -1.627654 0.368675 0.000000 0.000000 0.000000 2.145259 -11.776558 -5.627780 -14.256971 -4.215359 6.458072 73.447285 12.024137 -1.591406 -23.834252 -6.520166 3.124930 -21.400538 6.346432 -2.608046 0.000000 0.000000 0.000000 4.184488 -8.594799 -5.991029 10.269364 5.402318 2.019418 4.048666 0.307022 -1.271244 0.508600 2.857584 0.376053 0.000000 0.000000 0.000000 1.488916 0.938763 -1.329086 -0.081045 -1.509359 -2.207782 -8.210290 6.113216 3.576536 0.000000 0.000000 0.000000 2.324808 1.180942 -1.243551 0.495430 0.293075 -4.523023 3.102885 2.104523 -2.163594 25.494311 -0.095227 -52.850853 -10.410699 -77.413023 -10.771924 0.000000 0.000000 0.000000 2.543000 0.976546 -1.485908 2.426911 2.973681 15.568562 5.003396 -0.578403 -2.620164 -8.029453 11.121707 36.063768 -167.607433 77.253702 164.611848 0.000000 0.000000 0.000000 
0.509081 28.065102 31.650551 0.000000 0.000000 0.000000 -1.730365 -10.548116 -6.774600 -64.532522 8.621882 13.876168 76.741943 -1.482258 -9.706483 -17.574905 6.915069 -4.569639 1.441451 -1.722638 -0.311363 0.000000 0.000000 0.000000 -0.979636 -9.435372 -6.855827 -11.890258 -4.353674 8.304258 82.490339 12.152803 -2.921412 -7.293689 -2.159880 5.120803 -41.777460 9.029715 -4.863647 0.000000 0.000000 0.000000 -0.486247 -6.472749 -6.641909 9.400578 6.756200 1.189367 3.713125 1.005745 -1.261265 0.143779 1.371457 0.871304 0.000000 0.000000 0.000000 1.383951 1.366791 -1.248376 -0.001305 -2.774406 -2.377261 -6.382258 2.211857 3.584783 0.000000 0.000000 0.000000 2.023441 1.667282 -1.315947 0.978851 1.489793 -5.241862 3.188299 -0.771848 -3.078775 24.209766 1.567378 -53.329762 -12.130273 -75.400179 -12.437348 0.000000 0.000000 0.000000 2.745016 1.488827 -1.678029 2.221239 3.474578 17.508526 3.761028 2.248317 -1.535204 -6.119435 7.328931 37.945416 -96.713218 84.875810 93.802341 0.000000 0.000000 0.000000 
0.532499 27.658781 35.772858 0.000000 0.000000 0.000000 -7.464725 -9.129198 -6.726435 -50.416468 8.503372 10.389904 71.176363 -0.350607 -10.982046 -24.735730 6.447199 1.432033 0.623553 -1.269862 -2.064165 0.000000 0.000000 0.000000 -5.879602 -6.471819 -7.451433 -13.577085 -6.642203 9.070883 90.874922 11.356041 -3.131078 8.308479 0.294284 5.751950 -50.755641 10.504700 -6.051901 0.000000 0.000000 0.000000 -6.793523 -4.893736 -6.527369 8.608755 7.195393 -0.109307 3.314509 1.456906 -1.332085 -0.244588 0.157508 0.928057 0.000000 0.000000 0.000000 1.021904 1.467579 -1.266323 0.472434 -3.384864 -2.715993 -2.830503 -1.198188 3.535603 0.000000 0.000000 0.000000 1.688846 1.749960 -1.543855 1.380543 0.119966 -6.659176 2.667507 -3.525568 -4.713730 18.327184 1.589558 -52.913817 -9.167220 -69.897492 -9.051272 0.000000 0.000000 0.000000 2.928711 1.675808 -1.866278 1.824415 4.852277 19.330122 2.805766 4.768510 -0.618051 -1.584162 9.849525 38.118470 -20.000821 71.595935 17.405931 0.000000 0.000000 0.000000 
0.628174 27.522926 39.433506 0.000000 0.000000 0.000000 -14.350881 -7.307124 -6.234486 -34.082787 7.434379 6.360302 66.023129 0.505676 -11.449987 -27.730758 5.543116 6.102475 -0.303955 -0.384421 -4.219766 0.000000 0.000000 0.000000 -12.294864 -2.425753 -7.020385 -19.138364 -10.346228 8.086934 97.916397 9.719295 -1.947027 18.965991 0.085380 5.279818 -48.267813 10.166159 -6.770492 0.000000 0.000000 0.000000 -13.949224 -3.718881 -6.098482 7.939981 6.471890 -1.709620 2.942555 1.387562 -1.423179 0.200203 -1.065624 0.259412 0.000000 0.000000 0.000000 0.364641 1.124944 -1.319116 1.075648 -3.192531 -3.013989 2.451487 -3.159344 3.683633 0.000000 0.000000 0.000000 1.386906 1.313991 -1.759962 1.518009 -4.048103 -8.810069 1.777024 -4.772049 -5.924661 9.190643 -0.066205 -51.270839 -5.317791 -60.763487 -4.728081 0.000000 0.000000 0.000000 2.996607 1.411757 -1.997509 1.163042 6.898543 20.475970 1.270550 5.192805 0.063498 4.784538 19.083748 35.735157 -9.699739 52.958869 7.422735 0.000000 0.000000 0.000000 
